<svg id="svg" version="1.1" xmlns="http://www.w3.org/2000/svg" xmlns:xlink="http://www.w3.org/1999/xlink" width="40" height="39.04" viewBox="0, 0, 400,390.41394335511984"><g id="svgg"><path id="path0" d="M131.044 45.606 C 128.688 46.468,127.223 47.741,124.362 51.416 C 113.066 65.924,101.693 73.601,94.199 71.776 C 87.664 70.184,76.880 61.281,69.478 51.366 C 68.142 49.577,69.255 49.074,59.331 55.954 C 48.724 63.307,49.669 62.433,50.705 63.929 C 59.115 76.064,75.231 89.438,85.185 92.541 L 86.855 93.062 86.855 109.529 L 86.855 125.996 84.168 126.201 C 62.098 127.881,49.515 142.793,47.936 169.141 C 46.080 200.106,59.849 220.187,83.878 221.559 L 86.855 221.729 86.855 242.421 L 86.855 263.114 90.704 265.298 C 119.085 281.405,160.157 296.176,193.143 302.139 C 235.341 309.767,281.563 307.357,336.521 294.665 C 338.913 294.112,341.397 293.596,342.040 293.516 C 344.031 293.272,363.072 288.246,365.470 287.333 L 366.234 287.042 362.838 276.280 C 360.970 270.361,359.370 265.446,359.282 265.358 C 359.194 265.270,358.091 265.522,356.831 265.918 C 355.570 266.314,351.728 267.379,348.293 268.284 C 344.858 269.189,341.836 270.041,341.578 270.176 C 340.376 270.806,320.655 275.198,310.454 277.108 C 262.544 286.080,224.393 286.345,187.073 277.964 C 163.076 272.575,135.118 262.641,113.573 251.848 L 109.516 249.816 109.442 221.413 L 109.368 193.011 102.397 195.431 C 87.512 200.599,81.301 200.538,76.050 195.172 C 68.248 187.198,68.214 160.944,75.995 152.787 C 81.103 147.431,87.284 147.262,101.352 152.095 C 105.730 153.599,109.357 154.829,109.413 154.829 C 109.468 154.829,109.513 140.782,109.513 123.612 L 109.513 92.396 112.823 90.822 C 119.073 87.852,124.963 83.567,131.294 77.385 L 134.923 73.842 138.892 77.703 C 162.296 100.469,184.320 100.208,207.782 76.888 L 210.795 73.893 214.440 77.428 C 238.062 100.341,259.213 100.341,283.153 77.427 L 286.713 74.020 290.125 77.283 C 308.934 95.270,324.377 98.866,343.355 89.675 C 350.851 86.045,368.181 69.840,371.801 63.076 C 372.084 62.547,371.323 61.949,363.035 56.189 C 352.497 48.865,353.331 49.268,352.138 50.929 C 344.006 62.252,332.123 71.636,325.474 71.985 C 318.565 72.347,307.878 64.846,298.653 53.159 C 294.705 48.157,294.402 47.815,293.146 46.945 C 287.790 43.233,281.256 44.712,276.764 50.653 C 267.048 63.502,255.885 72.041,248.802 72.041 C 241.605 72.041,230.926 63.830,220.345 50.161 C 215.087 43.368,206.861 43.154,201.666 49.673 C 196.935 55.610,195.553 57.197,192.170 60.569 C 182.653 70.060,175.249 73.530,168.981 71.438 C 162.404 69.242,153.395 61.683,146.179 52.306 C 141.017 45.597,136.517 43.605,131.044 45.606 M283.660 130.438 C 267.367 133.865,261.266 154.065,272.912 166.022 C 283.982 177.387,303.103 172.935,308.221 157.800 C 313.412 142.453,299.615 127.083,283.660 130.438 M302.034 331.667 L 291.940 336.188 293.100 338.339 C 299.174 349.600,311.056 357.736,325.635 360.618 C 332.373 361.949,345.535 362.962,352.142 362.659 L 356.427 362.461 356.424 361.260 C 356.423 360.599,356.096 355.548,355.699 350.036 C 355.301 344.524,354.976 339.944,354.975 339.857 C 354.975 339.770,351.870 339.733,348.076 339.775 C 328.768 339.985,319.656 337.099,313.823 328.924 C 313.102 327.914,312.426 327.101,312.320 327.117 C 312.214 327.132,307.586 329.180,302.034 331.667 " stroke="none" fill="#040404" fill-rule="evenodd"></path><path id="path1" d="M0.000 195.207 L 0.000 390.414 170.951 390.414 L 341.903 390.414 341.903 376.508 L 341.903 362.602 338.925 362.404 C 315.795 360.868,300.608 352.915,292.925 338.317 C 291.633 335.863,290.573 336.638,302.460 331.350 L 312.545 326.863 313.438 328.254 C 317.786 335.030,326.047 338.716,338.563 339.464 L 341.903 339.664 341.903 316.673 C 341.903 303.387,341.793 293.682,341.643 293.682 C 341.501 293.682,339.769 294.066,337.795 294.535 C 284.159 307.287,236.519 309.939,194.336 302.522 C 161.725 296.788,119.433 281.714,91.145 265.742 L 86.866 263.326 86.861 242.692 L 86.855 222.057 83.283 221.715 C 65.447 220.007,53.662 209.324,49.391 190.995 C 46.644 179.207,47.191 163.079,50.705 152.208 C 55.793 136.470,69.376 126.086,84.895 126.073 L 86.855 126.071 86.855 109.709 L 86.855 93.346 84.314 92.382 C 76.463 89.406,69.782 84.680,61.147 75.993 C 56.880 71.701,50.100 63.848,49.733 62.774 C 49.649 62.527,68.224 49.502,68.363 49.711 C 74.647 59.178,88.185 70.434,94.919 71.791 C 102.087 73.236,114.028 64.840,124.561 50.948 C 130.831 42.678,138.708 42.515,144.894 50.528 C 154.990 63.606,165.987 72.054,172.891 72.037 C 179.909 72.019,191.122 63.224,201.626 49.498 C 206.879 42.634,215.279 43.241,221.114 50.906 C 230.666 63.453,241.964 72.059,248.858 72.037 C 255.734 72.016,267.371 62.944,277.124 50.004 C 280.679 45.287,285.722 43.662,290.824 45.589 C 293.155 46.469,294.229 47.428,297.588 51.631 C 308.699 65.532,319.392 73.029,326.397 71.829 C 330.283 71.163,339.622 65.531,341.680 62.612 C 341.798 62.446,341.896 48.290,341.898 31.155 L 341.903 0.000 170.951 0.000 L 0.000 0.000 0.000 195.207 M131.444 77.502 C 124.514 84.165,117.678 89.002,111.476 91.630 L 109.516 92.461 109.442 123.734 L 109.368 155.008 101.961 152.433 C 87.724 147.485,81.190 147.578,76.102 152.801 C 68.132 160.984,68.483 187.939,76.659 195.587 C 81.656 200.261,87.904 200.244,101.638 195.520 C 105.854 194.070,109.351 192.883,109.409 192.883 C 109.466 192.883,109.513 205.672,109.513 221.303 L 109.513 249.722 115.251 252.510 C 165.019 276.693,216.010 287.124,264.779 283.098 C 288.766 281.119,314.553 276.860,337.400 271.105 L 341.757 270.007 341.833 254.539 L 341.908 239.070 370.985 239.070 C 394.130 239.070,400.033 238.996,399.919 238.707 C 399.840 238.508,386.754 216.716,370.839 190.282 L 341.903 142.219 341.903 116.426 C 341.903 98.765,341.807 90.632,341.601 90.632 C 341.434 90.632,340.809 90.882,340.211 91.187 C 324.915 98.990,307.386 94.204,290.402 77.587 L 286.687 73.952 284.738 76.013 C 261.658 100.422,238.676 100.855,214.089 77.345 L 210.748 74.151 207.180 77.597 C 183.458 100.507,162.363 100.521,138.561 77.643 L 134.929 74.152 131.444 77.502 M293.464 130.548 C 308.415 134.341,314.390 152.473,304.697 164.637 C 296.410 175.037,279.833 175.114,271.565 164.790 C 258.599 148.601,273.400 125.458,293.464 130.548 " stroke="none" fill="#f3cb63" fill-rule="evenodd"></path><path id="path2" d="M269.415 59.041 L 267.974 60.566 269.499 59.125 C 270.916 57.785,271.157 57.516,270.940 57.516 C 270.894 57.516,270.208 58.203,269.415 59.041 M77.124 60.131 C 78.395 61.409,79.500 62.455,79.580 62.455 C 79.660 62.455,78.685 61.409,77.415 60.131 C 76.144 58.853,75.039 57.807,74.959 57.807 C 74.879 57.807,75.854 58.853,77.124 60.131 M304.139 59.405 C 305.007 60.283,305.783 61.002,305.863 61.002 C 305.942 61.002,305.298 60.283,304.430 59.405 C 303.562 58.526,302.787 57.807,302.707 57.807 C 302.627 57.807,303.272 58.526,304.139 59.405 M213.072 76.398 C 214.343 77.676,215.448 78.722,215.527 78.722 C 215.607 78.722,214.633 77.676,213.362 76.398 C 212.092 75.120,210.987 74.074,210.907 74.074 C 210.827 74.074,211.801 75.120,213.072 76.398 M283.805 76.834 C 283.100 77.553,282.588 78.141,282.668 78.141 C 282.748 78.141,283.390 77.553,284.096 76.834 C 284.801 76.115,285.313 75.527,285.234 75.527 C 285.154 75.527,284.511 76.115,283.805 76.834 M70.365 171.097 C 70.365 171.656,70.425 171.885,70.498 171.605 C 70.571 171.325,70.571 170.868,70.498 170.588 C 70.425 170.309,70.365 170.537,70.365 171.097 M70.365 176.906 C 70.365 177.466,70.425 177.694,70.498 177.415 C 70.571 177.135,70.571 176.678,70.498 176.398 C 70.425 176.118,70.365 176.347,70.365 176.906 M60.276 211.765 C 61.063 212.564,61.772 213.217,61.852 213.217 C 61.932 213.217,61.353 212.564,60.566 211.765 C 59.780 210.966,59.070 210.312,58.991 210.312 C 58.911 210.312,59.489 210.966,60.276 211.765 M84.168 221.846 C 84.528 221.915,85.116 221.915,85.476 221.846 C 85.835 221.777,85.541 221.720,84.822 221.720 C 84.103 221.720,83.809 221.777,84.168 221.846 M254.829 283.715 C 255.109 283.788,255.566 283.788,255.846 283.715 C 256.126 283.642,255.897 283.582,255.338 283.582 C 254.779 283.582,254.550 283.642,254.829 283.715 M240.595 284.022 C 241.993 284.075,244.281 284.075,245.679 284.022 C 247.077 283.968,245.933 283.925,243.137 283.925 C 240.341 283.925,239.198 283.968,240.595 284.022 M234.931 306.673 C 235.450 306.738,236.300 306.738,236.819 306.673 C 237.338 306.609,236.914 306.556,235.875 306.556 C 234.837 306.556,234.412 306.609,234.931 306.673 M316.037 331.518 C 317.241 332.800,317.502 333.031,317.502 332.813 C 317.502 332.766,316.881 332.145,316.122 331.433 L 314.742 330.138 316.037 331.518 M339.070 362.437 C 339.350 362.510,339.808 362.510,340.087 362.437 C 340.367 362.364,340.138 362.304,339.579 362.304 C 339.020 362.304,338.791 362.364,339.070 362.437 " stroke="none" fill="#987f3c" fill-rule="evenodd"></path><path id="path3" d="M87.077 199.189 C 87.438 199.258,87.961 199.256,88.239 199.183 C 88.516 199.110,88.221 199.053,87.582 199.057 C 86.943 199.060,86.715 199.119,87.077 199.189 M248.587 284.011 C 248.949 284.080,249.471 284.078,249.749 284.005 C 250.027 283.932,249.731 283.875,249.092 283.879 C 248.453 283.882,248.226 283.941,248.587 284.011 " stroke="none" fill="#7c6430" fill-rule="evenodd"></path><path id="path4" d="M134.426 44.940 C 134.787 45.010,135.310 45.007,135.588 44.935 C 135.866 44.862,135.570 44.805,134.931 44.808 C 134.292 44.811,134.065 44.871,134.426 44.940 M210.243 44.940 C 210.604 45.010,211.127 45.007,211.405 44.935 C 211.683 44.862,211.387 44.805,210.748 44.808 C 210.109 44.811,209.882 44.871,210.243 44.940 M286.060 44.940 C 286.421 45.010,286.944 45.007,287.222 44.935 C 287.500 44.862,287.204 44.805,286.565 44.808 C 285.926 44.811,285.699 44.871,286.060 44.940 M194.029 58.606 L 193.028 59.695 194.118 58.694 C 195.132 57.762,195.341 57.516,195.119 57.516 C 195.070 57.516,194.580 58.007,194.029 58.606 M152.360 59.550 C 153.309 60.508,154.150 61.293,154.230 61.293 C 154.310 61.293,153.599 60.508,152.651 59.550 C 151.702 58.591,150.861 57.807,150.781 57.807 C 150.701 57.807,151.412 58.591,152.360 59.550 M135.367 74.444 C 135.367 74.488,136.380 75.501,137.618 76.696 L 139.869 78.867 137.698 76.616 C 135.681 74.525,135.367 74.232,135.367 74.444 M132.015 76.761 L 130.574 78.286 132.099 76.845 C 132.938 76.052,133.624 75.366,133.624 75.320 C 133.624 75.103,133.355 75.344,132.015 76.761 M60.839 135.730 L 59.985 136.674 60.930 135.821 C 61.810 135.025,62.007 134.786,61.783 134.786 C 61.733 134.786,61.308 135.211,60.839 135.730 M47.723 170.661 C 47.725 171.460,47.781 171.752,47.848 171.310 C 47.915 170.869,47.913 170.215,47.844 169.858 C 47.775 169.501,47.721 169.862,47.723 170.661 M47.723 177.052 C 47.725 177.850,47.781 178.143,47.848 177.701 C 47.915 177.260,47.913 176.606,47.844 176.249 C 47.775 175.891,47.721 176.253,47.723 177.052 M233.486 284.018 C 234.169 284.080,235.215 284.079,235.810 284.017 C 236.405 283.954,235.846 283.904,234.568 283.905 C 233.290 283.906,232.803 283.957,233.486 284.018 M241.322 306.680 C 242.959 306.732,245.639 306.732,247.277 306.680 C 248.914 306.628,247.574 306.586,244.299 306.586 C 241.024 306.586,239.684 306.628,241.322 306.680 " stroke="none" fill="#74642c" fill-rule="evenodd"></path></g></svg> 